# xmcd CD database file
#
# Track frame offsets:
#	150
#	24802
#	43389
#	62338
#	82798
#	104425
#	131224
#	143824
#	167926
#	190495
#
# Disc length: 2866 seconds
#
# Revision: 0
# Processed by: cddbd v1.5.1PL2 Copyright (c) Steve Scherf et al.
# Submitted via: CDex 1.51
#
DISCID=860b300a
DTITLE=Various Artist - HIP HOP BIBLE
DYEAR=2004
DGENRE=Hip-Hop
TTITLE0=刃頭 feat. DJ YAS/DADDY'S BOUNCE
TTITLE1=MACKA-CHIN feat. S-WORD/東京湾中毒
TTITLE2=DABO/拍手喝采
TTITLE3=S-WORD/KROSS OVA'<斬> -swisherz deftime filez-
TTITLE4=NIPPS feat. TWINKLE, EMBRYO, BIGZAM, GORE-TEX, MONEV MILS/VENOM 2002 (PT.1)
TTITLE5=NIPPS feat. TWINKLE, EMBRYO, BIGZAM, GORE-TEX, MONEV MILS/VENOM 2002 (PT.2)
TTITLE6=ILLMARIACHI feat. Shigechiyo and Kent from DESPERADO/Younggunz
TTITLE7=SHAKKAZOMBIE/SHAKKATTACK
TTITLE8=ECD/Summer Madness (Barbecue Mix)
TTITLE9=DJ Krush feat. KOICHIRO SAMUKAWA/KRUSHNOTIZED
EXTD=YEAR: 2004
EXTT0=
EXTT1=
EXTT2=
EXTT3=
EXTT4=
EXTT5=
EXTT6=
EXTT7=
EXTT8=
EXTT9=
PLAYORDER=
